<?xml version="1.0" encoding="UTF-8" standalone="no"?>
<!-- Created with Inkscape (http://www.inkscape.org/) -->

<svg
   xmlns:dc="http://purl.org/dc/elements/1.1/"
   xmlns:cc="http://creativecommons.org/ns#"
   xmlns:rdf="http://www.w3.org/1999/02/22-rdf-syntax-ns#"
   xmlns:svg="http://www.w3.org/2000/svg"
   xmlns="http://www.w3.org/2000/svg"
   xmlns:sodipodi="http://sodipodi.sourceforge.net/DTD/sodipodi-0.dtd"
   xmlns:inkscape="http://www.inkscape.org/namespaces/inkscape"
   width="211.66667mm"
   height="132.29167mm"
   viewBox="0 0 211.66667 132.29167"
   version="1.1"
   id="svg8"
   inkscape:version="0.92.4 (5da689c313, 2019-01-14)"
   sodipodi:docname="Terrain_bad_noir.svg">
  <defs
     id="defs2" />
  <sodipodi:namedview
     id="base"
     pagecolor="#ffffff"
     bordercolor="#666666"
     borderopacity="1.0"
     inkscape:pageopacity="0.0"
     inkscape:pageshadow="2"
     inkscape:zoom="0.49497475"
     inkscape:cx="561.78732"
     inkscape:cy="536.46243"
     inkscape:document-units="mm"
     inkscape:current-layer="layer2"
     showgrid="false"
     inkscape:window-width="1920"
     inkscape:window-height="1009"
     inkscape:window-x="-8"
     inkscape:window-y="-8"
     inkscape:window-maximized="1"
     fit-margin-top="0"
     fit-margin-left="0"
     fit-margin-right="0"
     fit-margin-bottom="0" />
  <metadata
     id="metadata5">
    <rdf:RDF>
      <cc:Work
         rdf:about="">
        <dc:format>image/svg+xml</dc:format>
        <dc:type
           rdf:resource="http://purl.org/dc/dcmitype/StillImage" />
        <dc:title></dc:title>
      </cc:Work>
    </rdf:RDF>
  </metadata>
  <g
     inkscape:groupmode="layer"
     id="layer2"
     inkscape:label="Calque 2"
     transform="translate(-3.6285809,-89.680115)">
    <path
       style="fill:#1f2421;fill-opacity:1;stroke-width:0.26458335"
       d="M 3.6285809,155.82596 V 89.680115 H 109.46192 215.29526 v 66.145845 66.14583 H 109.46192 3.6285809 Z m 199.4303191,0.39762 0.0668,-54.9018 H 109.46254 15.799412 v 54.85696 c 0,30.17132 0.0496,54.90654 0.11025,54.96718 0.0606,0.0606 42.17899,0.0808 93.596358,0.0448 l 93.48611,-0.0654 z M 17.122332,207.29247 v -2.78319 h 5.96238 5.96238 l -0.0754,2.71198 -0.0754,2.71198 -5.88698,0.0712 -5.88698,0.0712 z m 13.14215,2.59785 c -0.0977,-0.0977 -0.17757,-1.34834 -0.17757,-2.7793 v -2.60174 h 28.84884 28.84884 l -0.0754,2.71198 -0.0754,2.71198 -28.59587,0.0673 c -15.72773,0.037 -28.67578,-0.0126 -28.77344,-0.11024 z m 58.7775,-0.15551 c -0.057,-0.18191 -0.0995,-1.4023 -0.0945,-2.71198 l 0.009,-2.38125 9.98802,-0.0693 9.988018,-0.0693 v 0.92922 c 0,0.75284 0.10045,0.92923 0.52917,0.92923 0.42837,0 0.52917,-0.17639 0.52917,-0.92604 v -0.92605 h 9.65729 9.65729 v 2.77813 2.77812 h -9.65729 -9.65729 v -1.05833 c 0,-0.88194 -0.0882,-1.05833 -0.52917,-1.05833 -0.44097,0 -0.52917,0.17639 -0.52917,1.05833 v 1.05833 h -9.893568 c -7.68319,0 -9.91672,-0.0739 -9.9972,-0.33072 z m 41.586608,-2.4474 v -2.77813 h 28.70729 28.70729 v 2.77813 2.77812 h -28.70729 -28.70729 z m 58.7375,0 v -2.77813 h 6.21771 6.2177 v 2.77813 2.77812 h -6.2177 -6.21771 z M 17.122332,180.03534 v -23.15105 h 5.95312 5.95313 v 23.15105 23.15104 h -5.95313 -5.95312 z m 12.96458,0 v -23.15105 h 21.44687 c 0,0 20.892569,0 28.95626,0 h 7.27604 c 0,0 0,8.64054 0,25.79688 v 20.50521 h -28.83958 -28.83959 z m 58.98748,22.95255 c -0.008,-0.10914 -0.0378,-21.0046 -0.0662,-46.43435 l -0.0515,-46.23592 9.98802,-3e-5 9.988028,-2e-5 v 0.79375 c 0,0.61736 0.11759,0.79375 0.52916,0.79375 0.41158,0 0.52917,-0.17639 0.52917,-0.79375 v -0.79375 h 9.6573 9.65729 v 46.43438 46.43438 h -20.10834 c -11.059578,0 -20.114898,-0.0893 -20.122938,-0.19844 z m 20.916688,-1.25677 c 0,-1.01424 -0.0784,-1.19063 -0.52916,-1.19063 -0.45077,0 -0.52917,0.17639 -0.52917,1.19063 0,1.01423 0.0784,1.19062 0.52917,1.19062 0.45077,0 0.52916,-0.17639 0.52916,-1.19062 z m 0,-3.57188 c 0,-0.88194 -0.0882,-1.05833 -0.52916,-1.05833 -0.44098,0 -0.52917,0.17639 -0.52917,1.05833 0,0.88195 0.0882,1.05834 0.52917,1.05834 0.44097,0 0.52916,-0.17639 0.52916,-1.05834 z m 0,-3.70416 c 0,-0.88195 -0.0882,-1.05834 -0.52916,-1.05834 -0.44098,0 -0.52917,0.17639 -0.52917,1.05834 0,0.88194 0.0882,1.05833 0.52917,1.05833 0.44097,0 0.52916,-0.17639 0.52916,-1.05833 z m 0,-3.70417 c 0,-0.88194 -0.0882,-1.05833 -0.52916,-1.05833 -0.44098,0 -0.52917,0.17639 -0.52917,1.05833 0,0.88194 0.0882,1.05833 0.52917,1.05833 0.44097,0 0.52916,-0.17639 0.52916,-1.05833 z m 0,-3.57187 c 0,-1.01424 -0.0784,-1.19063 -0.52916,-1.19063 -0.45077,0 -0.52917,0.17639 -0.52917,1.19063 0,1.01423 0.0784,1.19062 0.52917,1.19062 0.45077,0 0.52916,-0.17639 0.52916,-1.19062 z m 0,-3.57188 c 0,-0.88194 -0.0882,-1.05833 -0.52916,-1.05833 -0.44098,0 -0.52917,0.17639 -0.52917,1.05833 0,0.88194 0.0882,1.05833 0.52917,1.05833 0.44097,0 0.52916,-0.17639 0.52916,-1.05833 z m 0,-3.70417 c 0,-0.88194 -0.0882,-1.05833 -0.52916,-1.05833 -0.44098,0 -0.52917,0.17639 -0.52917,1.05833 0,0.88195 0.0882,1.05834 0.52917,1.05834 0.44097,0 0.52916,-0.17639 0.52916,-1.05834 z m 0,-3.70416 c 0,-0.88195 -0.0882,-1.05834 -0.52916,-1.05834 -0.44098,0 -0.52917,0.17639 -0.52917,1.05834 0,0.88194 0.0882,1.05833 0.52917,1.05833 0.44097,0 0.52916,-0.17639 0.52916,-1.05833 z m 0,-3.57188 c 0,-1.01423 -0.0784,-1.19062 -0.52916,-1.19062 -0.45077,0 -0.52917,0.17639 -0.52917,1.19062 0,1.01424 0.0784,1.19063 0.52917,1.19063 0.45077,0 0.52916,-0.17639 0.52916,-1.19063 z m 0,-3.57187 c 0,-0.88195 -0.0882,-1.05834 -0.52916,-1.05834 -0.44098,0 -0.52917,0.17639 -0.52917,1.05834 0,0.88194 0.0882,1.05833 0.52917,1.05833 0.44097,0 0.52916,-0.17639 0.52916,-1.05833 z m 0,-3.70417 c 0,-0.88194 -0.0882,-1.05833 -0.52916,-1.05833 -0.44098,0 -0.52917,0.17639 -0.52917,1.05833 0,0.88194 0.0882,1.05833 0.52917,1.05833 0.44097,0 0.52916,-0.17639 0.52916,-1.05833 z m -0.0236,-3.68161 c 0.009,-0.83438 -0.11674,-1.15205 -0.50554,-1.15755 -0.3888,-0.006 -0.52917,0.36089 -0.52917,1.16585 0,0.85109 0.10925,1.01943 0.52917,1.02748 0.41992,0.008 0.49662,-0.20139 0.50554,-1.03578 z m 0.0236,-3.59435 c 0,-1.01424 -0.0784,-1.19063 -0.52916,-1.19063 -0.45077,0 -0.52917,0.17639 -0.52917,1.19063 0,1.01423 0.0784,1.19062 0.52917,1.19062 0.45077,0 0.52916,-0.17639 0.52916,-1.19062 z m 0,-3.6475 c 0,-0.95754 -0.0823,-1.13393 -0.52916,-1.13393 -0.44685,0 -0.52917,0.17639 -0.52917,1.13393 0,0.95754 0.0823,1.13393 0.52917,1.13393 0.44685,0 0.52916,-0.17639 0.52916,-1.13393 z m 0,-3.6286 c 0,-0.88195 -0.0882,-1.05834 -0.52916,-1.05834 -0.44098,0 -0.52917,0.17639 -0.52917,1.05834 0,0.88194 0.0882,1.05833 0.52917,1.05833 0.44097,0 0.52916,-0.17639 0.52916,-1.05833 z m 0,-3.70417 c 0,-0.88194 -0.0882,-1.05833 -0.52916,-1.05833 -0.44098,0 -0.52917,0.17639 -0.52917,1.05833 0,0.88194 0.0882,1.05833 0.52917,1.05833 0.44097,0 0.52916,-0.17639 0.52916,-1.05833 z m 0,-3.57188 c 0,-1.01423 -0.0784,-1.19062 -0.52916,-1.19062 -0.45077,0 -0.52917,0.17639 -0.52917,1.19062 0,1.01424 0.0784,1.19063 0.52917,1.19063 0.45077,0 0.52916,-0.17639 0.52916,-1.19063 z m 0,-3.57187 c 0,-0.88194 -0.0882,-1.05833 -0.52916,-1.05833 -0.44098,0 -0.52917,0.17639 -0.52917,1.05833 0,0.88194 0.0882,1.05833 0.52917,1.05833 0.44097,0 0.52916,-0.17639 0.52916,-1.05833 z m 0,-3.70417 c 0,-0.88194 -0.0882,-1.05833 -0.52916,-1.05833 -0.44098,0 -0.52917,0.17639 -0.52917,1.05833 0,0.88195 0.0882,1.05834 0.52917,1.05834 0.44097,0 0.52916,-0.17639 0.52916,-1.05834 z m 0,-3.70416 c 0,-0.88195 -0.0882,-1.05834 -0.52916,-1.05834 -0.44098,0 -0.52917,0.17639 -0.52917,1.05834 0,0.88194 0.0882,1.05833 0.52917,1.05833 0.44097,0 0.52916,-0.17639 0.52916,-1.05833 z m 0,-3.57188 c 0,-1.01423 -0.0784,-1.19062 -0.52916,-1.19062 -0.43933,0 -0.52917,0.17639 -0.52917,1.03893 0,0.76697 0.1212,1.0706 0.46302,1.15993 0.25466,0.0666 0.49279,0.13481 0.52917,0.15169 0.0364,0.0169 0.0661,-0.50509 0.0661,-1.15993 z m 0,-3.57187 c 0,-0.88195 -0.0882,-1.05834 -0.52916,-1.05834 -0.44098,0 -0.52917,0.17639 -0.52917,1.05834 0,0.88194 0.0882,1.05833 0.52917,1.05833 0.44097,0 0.52916,-0.17639 0.52916,-1.05833 z m 0,-3.70417 c 0,-0.88194 -0.0882,-1.05833 -0.52916,-1.05833 -0.44098,0 -0.52917,0.17639 -0.52917,1.05833 0,0.88194 0.0882,1.05833 0.52917,1.05833 0.44097,0 0.52916,-0.17639 0.52916,-1.05833 z m 0,-3.73503 c 0,-0.85108 -0.0908,-1.02747 -0.52916,-1.02747 -0.44911,0 -0.52917,0.17639 -0.52917,1.16585 0,1.0356 0.0591,1.1504 0.52917,1.02748 0.41457,-0.10841 0.52916,-0.3609 0.52916,-1.16586 z m -0.0531,-3.51896 c -0.0944,-1.28739 -0.82059,-1.53765 -0.95882,-0.33043 -0.11278,0.98483 0.0693,1.41081 0.60287,1.41081 0.34571,0 0.41888,-0.22208 0.35595,-1.08038 z m 20.6906,65.59462 v -23.15105 h 28.70729 28.70729 v 23.15105 23.15104 h -28.70728 -28.70729 z m 58.73751,-3e-5 v -23.15105 h 6.21771 6.2177 v 23.15105 23.15104 h -6.2177 -6.21771 z M 17.122332,132.9395 v -22.62188 h 5.94736 5.94737 l 0.009,22.62188 0.009,22.62188 h -5.95599 -5.95594 z m 12.96458,0.003 v -22.62453 h 28.83959 28.83958 v 22.62188 22.62188 l -8.66907,-0.009 c 0,0 -18.585494,8.6e-4 -28.2128,0.006 l -20.79732,0.008 V 132.9421 Z m 100.541678,-0.003 V 110.318 h 28.70729 28.70729 v 22.62525 22.62524 l -23.48177,-0.0195 c 0,0 -22.3521,0.0233 -33.93281,0.0127 z m 58.7375,3e-5 v -22.62188 h 6.21771 6.2177 v 22.62188 22.62188 h -6.2177 -6.21771 z M 17.122332,105.8197 v -3.175 h 5.95312 5.95313 v 3.175 3.175 h -5.95313 -5.95312 z m 12.96458,0 v -3.175 h 28.83959 28.83958 v 3.175 3.175 h -28.83958 -28.83959 z m 58.82314,4.7e-4 0.0467,-3.17452 9.98802,-4.8e-4 9.988018,-4.7e-4 v 0.92604 c 0,0.74965 0.10079,0.92604 0.52917,0.92604 0.42837,0 0.52917,-0.17639 0.52917,-0.92604 v -0.92604 h 9.65729 9.65729 v 3.175 3.175 H 109.08457 88.863432 l 0.0467,-3.17453 z m 21.081028,1.32244 c 0,-0.88194 -0.0882,-1.05833 -0.52916,-1.05833 -0.44098,0 -0.52917,0.17639 -0.52917,1.05833 0,0.88195 0.0882,1.05834 0.52917,1.05834 0.44097,0 0.52916,-0.17639 0.52916,-1.05834 z m 20.63751,-1.32291 v -3.175 h 28.70729 28.70729 v 3.175 3.175 h -28.70729 -28.70729 z m 58.7375,0 v -3.175 h 6.21771 6.2177 v 3.175 3.175 h -6.2177 -6.21771 z"
       id="path830"
       inkscape:connector-curvature="0"
       sodipodi:nodetypes="cccccccccccccscsccccccccccccscccccscccccccssscccccccssscsccccccccccccccccccccccccccccccccccccccccccccssscccccsccssssssssssssssssssssssssssssssssssssssssssssssssssssssszzszzsssssssssssssssssssssssssssssssssssssssscssccccssssssssssssscsccscccccccccccccccccccccccccccccccccccccccccccccccccccccccccccccccccccccccccccccccssscccccccccssssscccccccccccccccccc" />
    <path
       style="fill:#000000;stroke-width:0.26458335"
       d=""
       id="path828"
       inkscape:connector-curvature="0" />
  </g>
</svg>
